<svg width="50" height="66" viewBox="0 0 50 66" fill="none" xmlns="http://www.w3.org/2000/svg">
<path fill-rule="evenodd" clip-rule="evenodd" d="M28.2564 17.1678C28.7255 12.4483 30.845 3.33278 37.5684 6.14357C41.8462 7.93273 45.5587 13.3958 44.6237 18.1357C43.4516 24.0761 36.6522 24.1232 32.0252 22.8055C30.693 22.4266 29.3866 21.9367 28.1035 21.371C28.0752 19.9686 28.1176 18.565 28.2564 17.1678ZM0.763544 0.594631C6.60985 9.57396 15.0325 17.9122 24.7707 22.9022C24.9487 25.3638 25.3037 27.6823 25.7098 29.6189C28.07 40.8694 34.4636 52.6467 42.8567 60.553C43.7742 61.4167 45.1151 60.6897 45.3824 59.6891C45.299 60.2617 45.2085 60.8334 45.1108 61.4042C43.6328 61.0898 42.2512 60.5536 40.8968 59.7587C40.0694 59.2726 39.3312 58.5194 38.4811 58.1053C37.9748 57.8586 37.6956 58.1472 37.1805 57.8032C37.0163 57.6934 36.7516 57.8161 36.8345 58.0379C37.0618 58.6449 36.8268 59.1395 37.0797 59.7371C37.4776 60.6787 38.872 61.7839 39.6523 62.3653C41.5958 63.8133 43.8642 64.6854 46.2314 65.1332C47.2202 65.3199 48.0316 64.6326 48.2779 63.7184C48.8818 61.4775 49.1678 59.1506 49.3003 56.8373C49.4145 54.833 49.674 52.5634 48.9182 50.6721C48.3264 49.1889 46.2352 49.3472 45.8724 50.9039C45.4294 52.8034 45.8096 54.8745 45.6932 56.8256C45.6434 57.662 45.5464 58.4876 45.4333 59.3106C45.4272 59.0451 45.3423 58.7728 45.1499 58.5144C38.9318 50.1656 32.7978 42.3982 29.8196 32.2048C29.0871 29.7015 28.5668 27.1244 28.2986 24.5235C28.5196 24.6149 28.7385 24.7168 28.9616 24.8057C36.3029 27.7119 47.9089 27.1536 47.974 16.7437C48.0211 9.35493 39.2196 -1.35713 31.2464 3.42318C26.1519 6.47726 24.6518 13.191 24.6528 19.6478C21.695 18.0052 18.88 16.0516 16.2146 14.1577C10.6578 10.2107 5.63978 5.44668 1.12359 0.352786C0.944342 0.150966 0.606113 0.353218 0.763544 0.594631Z" fill="black"/>
</svg>
